<svg id="Layer_1" data-name="Layer 1" xmlns="http://www.w3.org/2000/svg" viewBox="0 0 166.06 30"><defs><style>.cls-1{fill:#f5b131;}</style></defs><title>logo</title><path d="M377.76,555.58a2.22,2.22,0,0,1,1.58-.58,2.24,2.24,0,0,1,1.57.58,1.89,1.89,0,0,1,.64,1.48,1.83,1.83,0,0,1-.64,1.46,2.31,2.31,0,0,1-1.57.55,2.29,2.29,0,0,1-1.58-.55,1.86,1.86,0,0,1-.63-1.46A1.91,1.91,0,0,1,377.76,555.58Zm3.41,5.8v11.56h-3.69V561.38Z" transform="translate(-310.09 -555)"/><path d="M394.17,564.75a1.36,1.36,0,0,0-.52-.72,1.83,1.83,0,0,0-1-.24,2.2,2.2,0,0,0-1,.24,1.6,1.6,0,0,0-.7.73,2.46,2.46,0,0,0-.26,1.14v7H386.8V561.38h3.84v1.73a3.74,3.74,0,0,1,1.39-1.48,4.05,4.05,0,0,1,2.13-.53,4.67,4.67,0,0,1,2.35.53,3.27,3.27,0,0,1,1.36,1.51,5.78,5.78,0,0,1,.44,2.36v7.44h-4v-7A3.49,3.49,0,0,0,394.17,564.75Z" transform="translate(-310.09 -555)"/><path class="cls-1" d="M314.43,568.74a2.73,2.73,0,0,0,1.11,1,3.38,3.38,0,0,0,1.56.36,4.57,4.57,0,0,0,1.34-.19,3.88,3.88,0,0,0,1.18-.56,3.16,3.16,0,0,0,.89-.93v3.69a4.81,4.81,0,0,1-1.52.77,8.34,8.34,0,0,1-5.66-.47A6,6,0,0,1,311,564a5.83,5.83,0,0,1,2.37-2.1,8.51,8.51,0,0,1,5.66-.47,4.77,4.77,0,0,1,1.52.72v3.72a3.1,3.1,0,0,0-.91-.93,4.35,4.35,0,0,0-1.22-.56,4.46,4.46,0,0,0-1.28-.19,3.07,3.07,0,0,0-1.56.4,3,3,0,0,0-1.11,1.07,3,3,0,0,0-.4,1.52A3,3,0,0,0,314.43,568.74Z" transform="translate(-310.09 -555)"/><path class="cls-1" d="M325.9,564a5.84,5.84,0,0,1,2.37-2.11,7.55,7.55,0,0,1,3.4-.76,7.35,7.35,0,0,1,3.36.76,5.85,5.85,0,0,1,2.35,2.11,6.23,6.23,0,0,1,0,6.35,5.85,5.85,0,0,1-2.35,2.11,7.92,7.92,0,0,1-6.77,0,5.88,5.88,0,0,1-2.36-2.11,6.23,6.23,0,0,1,0-6.35Zm3.42,4.71a2.51,2.51,0,0,0,1,1,2.71,2.71,0,0,0,2.7,0,2.42,2.42,0,0,0,.95-1,3.14,3.14,0,0,0,.35-1.53,3.18,3.18,0,0,0-.35-1.56,2.48,2.48,0,0,0-.95-1,2.71,2.71,0,0,0-2.7,0,2.55,2.55,0,0,0-1,1,3.39,3.39,0,0,0,0,3.08Z" transform="translate(-310.09 -555)"/><path class="cls-1" d="M343.21,564a5.84,5.84,0,0,1,2.37-2.11,7.54,7.54,0,0,1,3.39-.76,7.37,7.37,0,0,1,3.37.76,5.9,5.9,0,0,1,0,10.57,7.92,7.92,0,0,1-6.77,0,5.81,5.81,0,0,1-2.36-2.11,6.23,6.23,0,0,1,0-6.35Zm3.41,4.71a2.58,2.58,0,0,0,1,1,2.62,2.62,0,0,0,1.35.36,2.57,2.57,0,0,0,1.35-.36,2.44,2.44,0,0,0,1-1,3.26,3.26,0,0,0,.35-1.53,3.3,3.3,0,0,0-.35-1.56,2.5,2.5,0,0,0-1-1,2.57,2.57,0,0,0-1.35-.36,2.65,2.65,0,0,0-2.33,1.36,3.47,3.47,0,0,0,0,3.08Z" transform="translate(-310.09 -555)"/><path class="cls-1" d="M363.94,561.38v11.56H360.3V561.38Zm8.74,0-4.94,4.77,5.45,6.79h-4.47l-5.48-6.79,4.92-4.77Z" transform="translate(-310.09 -555)"/><path class="cls-1" d="M406,569.88a5.94,5.94,0,0,0,1.27.58,3.42,3.42,0,0,0,1,.16,1.22,1.22,0,0,0,.85-.25.84.84,0,0,0,.28-.68.93.93,0,0,0-.23-.61,2.11,2.11,0,0,0-.75-.5,12.51,12.51,0,0,0-1.48-.52,11.43,11.43,0,0,1-1.55-.73,3.55,3.55,0,0,1-1.24-1.13,3.14,3.14,0,0,1-.48-1.81,2.81,2.81,0,0,1,.57-1.78,3.47,3.47,0,0,1,1.54-1.1,5.92,5.92,0,0,1,2.21-.38,7.12,7.12,0,0,1,1.9.23,8.54,8.54,0,0,1,1.63.6,8.23,8.23,0,0,1,1.42.88l-1.36,2.48a5.91,5.91,0,0,0-1.63-1.13,4.12,4.12,0,0,0-1.73-.45,1.32,1.32,0,0,0-.76.2.64.64,0,0,0-.27.53.78.78,0,0,0,.31.63,3.06,3.06,0,0,0,.91.46l1.44.54a9.55,9.55,0,0,1,1.67.76,3.71,3.71,0,0,1,1.21,1.08,2.91,2.91,0,0,1,.46,1.73,3.86,3.86,0,0,1-.51,2.06,3.31,3.31,0,0,1-1.49,1.26,5.83,5.83,0,0,1-2.34.42,8.6,8.6,0,0,1-2.33-.29,8.8,8.8,0,0,1-2-.78,12.1,12.1,0,0,1-1.68-1.09l1.58-2.51A11.65,11.65,0,0,0,406,569.88Z" transform="translate(-310.09 -555)"/><path class="cls-1" d="M435.38,572.94h-3.84v-7a4.25,4.25,0,0,0-.14-1.17,1.3,1.3,0,0,0-.45-.7,1.35,1.35,0,0,0-.84-.24,1.68,1.68,0,0,0-.9.24,1.54,1.54,0,0,0-.6.72,2.81,2.81,0,0,0-.21,1.15v7h-3.82v-7a3.87,3.87,0,0,0-.15-1.17,1.38,1.38,0,0,0-.47-.7,1.3,1.3,0,0,0-.81-.24,1.82,1.82,0,0,0-.92.23,1.44,1.44,0,0,0-.6.7,2.92,2.92,0,0,0-.22,1.18v7h-3.69V561.38h3.69v1.71a4.26,4.26,0,0,1,.82-1.09,3,3,0,0,1,1.11-.67,4.23,4.23,0,0,1,1.42-.23,5.26,5.26,0,0,1,1.57.22,2.63,2.63,0,0,1,1.09.64,2.79,2.79,0,0,1,.65,1,4.4,4.4,0,0,1,3.67-1.91,4,4,0,0,1,2.15.52,2.93,2.93,0,0,1,1.14,1.49,7.26,7.26,0,0,1,.35,2.39Z" transform="translate(-310.09 -555)"/><path class="cls-1" d="M444,570.07a1.56,1.56,0,0,0,.59.48,1.93,1.93,0,0,0,.83.17,2.72,2.72,0,0,0,1.21-.27,2.24,2.24,0,0,0,.9-.83,2.44,2.44,0,0,0,.36-1.36l.4,1.51a3,3,0,0,1-.59,1.87,3.73,3.73,0,0,1-1.56,1.16,5.52,5.52,0,0,1-2.07.39,4.9,4.9,0,0,1-2-.42,3.41,3.41,0,0,1-1.49-1.24,3.82,3.82,0,0,1-.05-3.93,3.07,3.07,0,0,1,1.5-1.23,6.49,6.49,0,0,1,2.5-.42,8.37,8.37,0,0,1,1.86.19,6.84,6.84,0,0,1,1.47.49,2.65,2.65,0,0,1,.89.63v1.68a4.41,4.41,0,0,0-1.39-.69,5.71,5.71,0,0,0-1.67-.24,3.2,3.2,0,0,0-1.07.15,1.21,1.21,0,0,0-.6.43,1.24,1.24,0,0,0-.19.73A1.28,1.28,0,0,0,444,570.07Zm-3.2-7.71a16,16,0,0,1,2.38-.89,10.16,10.16,0,0,1,3-.42,8,8,0,0,1,2.75.44,4.54,4.54,0,0,1,1.89,1.27,3,3,0,0,1,.71,2v8.17h-3.64v-7.29a2.21,2.21,0,0,0-.13-.74,1.13,1.13,0,0,0-.41-.55,2,2,0,0,0-.7-.32,4.11,4.11,0,0,0-.92-.1,6.68,6.68,0,0,0-1.54.18,8.62,8.62,0,0,0-1.32.41,5.73,5.73,0,0,0-.79.39Z" transform="translate(-310.09 -555)"/><path class="cls-1" d="M460.65,572.94h-3.77V561.38h3.77Zm2.7-8.09a1.8,1.8,0,0,0-.84-.18,1.72,1.72,0,0,0-1,.29,1.87,1.87,0,0,0-.66.87,3.62,3.62,0,0,0-.24,1.4l-.9-1.33a5.3,5.3,0,0,1,.55-2.46,4.72,4.72,0,0,1,1.42-1.71,3.08,3.08,0,0,1,1.84-.63,2.9,2.9,0,0,1,1.22.28,2.18,2.18,0,0,1,.87.65L464,565.32A2.34,2.34,0,0,0,463.35,564.85Z" transform="translate(-310.09 -555)"/><path class="cls-1" d="M476.15,561.38v3.14h-7.74v-3.14Zm-2-2.51v14.07h-3.66V558.87Z" transform="translate(-310.09 -555)"/><path class="cls-1" d="M318.92,583.83l1.42,1a1,1,0,0,0,1.42-.29l6.34-10a9.61,9.61,0,0,1-1.14-.69,12.2,12.2,0,0,1-1-.83l-7.22,9.37A1,1,0,0,0,318.92,583.83Zm2.31-1.79a.78.78,0,1,1-1.09.19A.78.78,0,0,1,321.23,582Z" transform="translate(-310.09 -555)"/></svg>